<svg width="23" height="24" viewBox="0 0 23 24" fill="none" xmlns="http://www.w3.org/2000/svg">
<path d="M9.36148 2.51343C9.95919 2.93403 10.5305 3.21119 11.0013 3.2723C10.7447 3.79217 10.5656 4.35048 10.4721 4.92733C9.71266 4.75743 8.9921 4.34922 8.40071 3.93309C8.10837 3.72738 7.83158 3.50819 7.5784 3.29238V5.86047C7.5784 6.21263 7.36843 6.52936 7.04807 6.66067L7.04107 6.66361C7.03407 6.66658 7.02208 6.67172 7.00553 6.67901C6.97239 6.69363 6.92109 6.71684 6.85485 6.74863C6.72209 6.81232 6.53085 6.90973 6.30642 7.0405C5.85308 7.30463 5.28672 7.69199 4.79324 8.19516C4.28178 8.71667 3.96649 9.41707 3.78842 9.96097C3.56002 10.6586 2.9785 11.3017 2.15068 11.4423C2.02892 11.463 1.93967 11.5704 1.93967 11.6963V13.712C1.93967 13.9023 2.07456 14.0646 2.25859 14.0959C2.96221 14.2154 3.51654 14.6838 3.82824 15.2527C4.11172 15.7702 4.61571 16.5687 5.35711 17.3246C5.93322 17.9121 6.60412 18.2887 7.14401 18.5192C7.41161 18.6333 7.64021 18.7087 7.79836 18.7548C7.87722 18.7777 7.93795 18.7932 7.97649 18.8024C7.99575 18.807 8.00941 18.8101 8.01697 18.8117L8.02239 18.813L8.02361 18.8132C8.42005 18.8927 8.70615 19.2472 8.70615 19.6594V21.0968C8.70615 21.2555 8.83238 21.3843 8.98808 21.3843H10.3978C10.3978 20.4316 11.1552 19.6594 12.0894 19.6594H14.3449C15.2791 19.6594 16.0365 20.4316 16.0365 21.3843H17.4462C17.6019 21.3843 17.7281 21.2555 17.7281 21.0968V18.5095C17.7281 18.1843 17.9082 17.8865 18.1925 17.7396L18.2075 17.7315C18.2232 17.7227 18.2502 17.7074 18.2867 17.6852C18.3599 17.6409 18.4709 17.5695 18.6073 17.469C18.881 17.2674 19.2517 16.953 19.6234 16.5108C20.359 15.6358 21.1114 14.2479 21.1114 12.185C21.1114 11.0275 20.8991 10.0917 20.5377 9.3245C20.9413 8.77832 21.2456 8.16369 21.4377 7.51229C21.5496 7.66854 21.6557 7.83073 21.7556 7.99916C22.437 9.147 22.803 10.5325 22.803 12.185C22.803 14.7216 21.8637 16.4961 20.9077 17.6334C20.4336 18.1974 19.9585 18.6016 19.5978 18.8672C19.5349 18.9136 19.4753 18.9558 19.4197 18.994V21.0968C19.4197 22.2082 18.5361 23.1091 17.4462 23.1091H16.0365C15.1023 23.1091 14.3449 22.3369 14.3449 21.3843H12.0894C12.0894 22.3369 11.332 23.1091 10.3978 23.1091H8.98808C7.89812 23.1091 7.01453 22.2082 7.01453 21.0968V20.3119C6.85883 20.2583 6.68218 20.1919 6.49095 20.1103C5.81872 19.8234 4.93897 19.3377 4.16096 18.5443C3.27677 17.6428 2.68457 16.7021 2.35141 16.0939C2.25308 15.9145 2.10621 15.8186 1.98049 15.7972C0.980778 15.6274 0.248047 14.7454 0.248047 13.712L0.248047 11.6963C0.248047 10.7273 0.935138 9.90026 1.87258 9.74088C1.97059 9.72421 2.11503 9.62497 2.18384 9.41488C2.40076 8.75225 2.82167 7.76617 3.59708 6.9755C4.23135 6.32878 4.9337 5.85371 5.46715 5.54289C5.62094 5.45328 5.76254 5.37627 5.88678 5.31177V2.03261C5.88678 0.954114 7.16183 0.511422 7.8489 1.20903C8.22157 1.58741 8.7626 2.09203 9.36148 2.51343ZM12.7322 7.98554C12.1795 7.75216 11.7132 7.30909 11.6021 6.70974C11.2141 4.61521 12.3021 2.45934 14.3098 1.61114C16.6114 0.638809 19.2504 1.75308 20.204 4.09994C21.0358 6.14719 20.3104 8.45612 18.5837 9.65774C18.0897 10.0016 17.4526 9.9788 16.8999 9.74537L12.7322 7.98554ZM17.6876 8.19196C18.7247 7.43057 19.151 6.01483 18.6411 4.76015C18.0451 3.29336 16.3958 2.59694 14.9574 3.20464C13.7269 3.72448 13.0467 5.03301 13.2522 6.31905C13.2587 6.32431 13.2668 6.33029 13.2763 6.3368C13.303 6.35489 13.3376 6.37424 13.3794 6.39191L17.5471 8.15175C17.5891 8.16943 17.627 8.1807 17.6583 8.18709C17.6696 8.18939 17.6794 8.19093 17.6876 8.19196ZM8.14227 9.31016C8.14227 9.94522 7.63736 10.46 7.01453 10.46C6.3917 10.46 5.88678 9.94522 5.88678 9.31016C5.88678 8.67509 6.3917 8.16025 7.01453 8.16025C7.63736 8.16025 8.14227 8.67509 8.14227 9.31016Z" fill="#6300F7"/>
</svg>
